<svg width="24" height="12" viewBox="0 0 24 12" fill="none" xmlns="http://www.w3.org/2000/svg">
<path d="M10 7.5C9.64583 7.5 9.34896 7.38021 9.10938 7.14062C8.86979 6.90104 8.75 6.60417 8.75 6.25V1.25C8.75 0.895833 8.86979 0.598958 9.10938 0.359375C9.34896 0.119792 9.64583 0 10 0H13.75C14.1042 0 14.401 0.119792 14.6406 0.359375C14.8802 0.598958 15 0.895833 15 1.25V6.25C15 6.60417 14.8802 6.90104 14.6406 7.14062C14.401 7.38021 14.1042 7.5 13.75 7.5H10V7.5M10.625 5.625H13.125V1.875H10.625V5.625V5.625M1.25 7.5C0.895833 7.5 0.598958 7.38021 0.359375 7.14062C0.119792 6.90104 0 6.60417 0 6.25V1.25C0 0.895833 0.119792 0.598958 0.359375 0.359375C0.598958 0.119792 0.895833 0 1.25 0H5C5.35417 0 5.65104 0.119792 5.89062 0.359375C6.13021 0.598958 6.25 0.895833 6.25 1.25V2.5H4.375V1.875H1.875V5.625H4.375V5H6.25V6.25C6.25 6.60417 6.13021 6.90104 5.89062 7.14062C5.65104 7.38021 5.35417 7.5 5 7.5H1.25V7.5M17.5 11.25V8.125C17.5 7.77083 17.6198 7.47396 17.8594 7.23438C18.099 6.99479 18.3958 6.875 18.75 6.875H21.25V5.625H17.5V3.75H21.875C22.2292 3.75 22.526 3.86979 22.7656 4.10938C23.0052 4.34896 23.125 4.64583 23.125 5V6.875C23.125 7.22917 23.0052 7.52604 22.7656 7.76562C22.526 8.00521 22.2292 8.125 21.875 8.125H19.375V9.375H23.125V11.25H17.5V11.25" fill="#1B6D24"/>
</svg>
