<svg width="48" height="48" viewBox="0 0 48 48" fill="none" xmlns="http://www.w3.org/2000/svg">
<rect width="48" height="48" rx="8" fill="#E0E4DB"/>
<path d="M15 32C14.45 32 13.9792 31.8042 13.5875 31.4125C13.1958 31.0208 13 30.55 13 30V19H15V30H32V32H15ZM19 28C18.45 28 17.9792 27.8042 17.5875 27.4125C17.1958 27.0208 17 26.55 17 26V18C17 17.45 17.1958 16.9792 17.5875 16.5875C17.9792 16.1958 18.45 16 19 16H33C33.55 16 34.0208 16.1958 34.4125 16.5875C34.8042 16.9792 35 17.45 35 18V26C35 26.55 34.8042 27.0208 34.4125 27.4125C34.0208 27.8042 33.55 28 33 28H19ZM21 26C21 25.45 20.8042 24.9792 20.4125 24.5875C20.0208 24.1958 19.55 24 19 24V26H21ZM31 26H33V24C32.45 24 31.9792 24.1958 31.5875 24.5875C31.1958 24.9792 31 25.45 31 26ZM26 25C26.8333 25 27.5417 24.7083 28.125 24.125C28.7083 23.5417 29 22.8333 29 22C29 21.1667 28.7083 20.4583 28.125 19.875C27.5417 19.2917 26.8333 19 26 19C25.1667 19 24.4583 19.2917 23.875 19.875C23.2917 20.4583 23 21.1667 23 22C23 22.8333 23.2917 23.5417 23.875 24.125C24.4583 24.7083 25.1667 25 26 25ZM19 20C19.55 20 20.0208 19.8042 20.4125 19.4125C20.8042 19.0208 21 18.55 21 18H19V20ZM33 20V18H31C31 18.55 31.1958 19.0208 31.5875 19.4125C31.9792 19.8042 32.45 20 33 20Z" fill="#1B6D24"/>
</svg>
