<svg width="194" height="28" viewBox="0 0 194 28" fill="none" xmlns="http://www.w3.org/2000/svg">
<path d="M0 26.5L2.5 14H22.5L25 26.5H0ZM1.25 4V1.5H5V4H1.25ZM3.0625 24H11.25V21.5H3.5625L3.0625 24ZM5.15625 10.6562L3.375 8.90625L6.03125 6.25L7.8125 8L5.15625 10.6562ZM4.0625 19H11.25V16.5H4.5625L4.0625 19ZM12.5 7.75C10.7708 7.75 9.29688 7.14062 8.07812 5.92188C6.85938 4.70312 6.25 3.22917 6.25 1.5H8.75C8.75 2.54167 9.11458 3.42708 9.84375 4.15625C10.5729 4.88542 11.4583 5.25 12.5 5.25C13.5417 5.25 14.4271 4.88542 15.1562 4.15625C15.8854 3.42708 16.25 2.54167 16.25 1.5H18.75C18.75 3.22917 18.1406 4.70312 16.9219 5.92188C15.7031 7.14062 14.2292 7.75 12.5 7.75ZM11.25 12.75V9H13.75V12.75H11.25ZM13.75 24H21.9375L21.4375 21.5H13.75V24ZM13.75 19H20.9375L20.4375 16.5H13.75V19ZM19.8438 10.6562L17.2188 8L18.9688 6.25L21.625 8.875L19.8438 10.6562ZM20 4V1.5H23.75V4H20Z" fill="#00450D"/>
<path d="M50.64 7.36C50.5464 6.18025 50.2197 5.22025 49.66 4.48C49.0988 3.73846 48.3813 3.17012 47.5075 2.775C46.6303 2.37833 45.6478 2.18 44.56 2.18C42.5005 2.18 40.8721 2.86667 39.675 4.24C38.4783 5.6128 37.88 7.47947 37.88 9.84C37.88 12.1885 38.4725 14.046 39.6575 15.4125C40.8412 16.7775 42.4487 17.46 44.48 17.46C46.2999 17.46 47.769 16.9708 48.8875 15.9925C50.0058 15.0143 50.61 13.6901 50.7 12.02H47.78C47.6799 12.9511 47.3507 13.6703 46.7925 14.1775C46.2331 14.6858 45.4889 14.94 44.56 14.94C43.4009 14.94 42.4976 14.4942 41.85 13.6025C41.2033 12.7121 40.88 11.4712 40.88 9.88C40.88 8.27132 41.215 7.01215 41.885 6.1025C42.554 5.19417 43.479 4.74 44.66 4.74C45.5274 4.74 46.2149 4.95417 46.7225 5.3825C47.2269 5.80816 47.5794 6.46733 47.78 7.36H50.64ZM55.58 2.42H52.78V17H55.58V2.42ZM67.48 12.48C67.4933 12.32 67.5 12.16 67.5 12C67.5 10.9251 67.36 9.97846 67.08 9.16C66.7199 8.1796 66.129 7.41126 65.3075 6.855C64.4854 6.29833 63.5296 6.02 62.44 6.02C60.8914 6.02 59.6705 6.54417 58.7775 7.5925C57.8858 8.63924 57.44 10.0684 57.44 11.88C57.44 13.6096 57.8808 14.9721 58.7625 15.9675C59.6438 16.9625 60.8496 17.46 62.38 17.46C63.5921 17.46 64.6504 17.1442 65.555 16.5125C66.4622 15.879 67.0705 15.0282 67.38 13.96H64.62C64.4497 14.3907 64.1781 14.7249 63.805 14.9625C63.4308 15.2008 62.9892 15.32 62.48 15.32C61.6711 15.32 61.0578 15.0067 60.64 14.38C60.4091 14.0247 60.2757 13.3914 60.24 12.48H67.48ZM60.28 10.62C60.4578 8.98 61.1645 8.16 62.4 8.16C63.7098 8.16 64.4365 8.98 64.58 10.62H60.28ZM78.7 16.66C78.4588 16.4288 78.2921 16.2188 78.2 16.03C78.1067 15.8387 78.06 15.6087 78.06 15.34V9.34C78.06 7.12667 76.5867 6.02 73.64 6.02C70.7395 6.02 69.1995 7.26667 69.02 9.76H71.72C71.7903 9.19759 71.9653 8.81092 72.245 8.6C72.5279 8.38667 73.0129 8.28 73.7 8.28C74.78 8.28 75.32 8.64 75.32 9.36C75.32 9.728 75.16 10.008 74.84 10.2C74.65 10.3 74.4817 10.3675 74.335 10.4025C74.1883 10.4375 73.77 10.51 73.08 10.62L71.96 10.82C69.84 11.1766 68.78 12.31 68.78 14.22C68.78 15.1919 69.0792 15.9744 69.6775 16.5675C70.2777 17.1625 71.0719 17.46 72.06 17.46C73.2595 17.46 74.3528 16.9467 75.34 15.92C75.34 16.1996 75.3608 16.4096 75.4025 16.55C75.444 16.6898 75.5298 16.8398 75.66 17H78.7V16.66ZM75.32 12.66C75.32 13.4706 75.1275 14.0964 74.7425 14.5375C74.357 14.9792 73.8095 15.2 73.1 15.2C72.6306 15.2 72.2597 15.0833 71.9875 14.85C71.7158 14.6171 71.58 14.3005 71.58 13.9C71.58 13.4809 71.7017 13.1592 71.945 12.935C72.1871 12.7119 72.5987 12.5403 73.18 12.42L74.14 12.24C74.6762 12.1386 75.0696 12.0252 75.32 11.9V12.66ZM80.6 6.2V17H83.4V10.52C83.4 9.87826 83.6042 9.36493 84.0125 8.98C84.4227 8.59333 84.9718 8.4 85.66 8.4C86.86 8.4 87.46 9.04667 87.46 10.34V17H90.26V9.76C90.26 8.56038 89.9467 7.63705 89.32 6.99C88.6937 6.34333 87.8004 6.02 86.64 6.02C85.9085 6.02 85.286 6.1575 84.7725 6.4325C84.2567 6.70874 83.7992 7.15124 83.4 7.76V6.2H80.6ZM96.14 10.72H103.12V8.22H96.14V4.92H103.68V2.42H93.14V17H104.04V14.5H96.14V10.72ZM106.16 6.2V17H108.96V10.52C108.96 9.87826 109.164 9.36493 109.573 8.98C109.983 8.59333 110.532 8.4 111.22 8.4C112.42 8.4 113.02 9.04667 113.02 10.34V17H115.82V9.76C115.82 8.56038 115.507 7.63705 114.88 6.99C114.254 6.34333 113.36 6.02 112.2 6.02C111.468 6.02 110.846 6.1575 110.333 6.4325C109.817 6.70874 109.359 7.15124 108.96 7.76V6.2H106.16ZM127.6 12.48C127.613 12.32 127.62 12.16 127.62 12C127.62 10.9251 127.48 9.97846 127.2 9.16C126.84 8.1796 126.249 7.41126 125.428 6.855C124.605 6.29833 123.65 6.02 122.56 6.02C121.011 6.02 119.791 6.54417 118.898 7.5925C118.006 8.63924 117.56 10.0684 117.56 11.88C117.56 13.6096 118.001 14.9721 118.883 15.9675C119.764 16.9625 120.97 17.46 122.5 17.46C123.712 17.46 124.77 17.1442 125.675 16.5125C126.582 15.879 127.191 15.0282 127.5 13.96H124.74C124.57 14.3907 124.298 14.7249 123.925 14.9625C123.551 15.2008 123.109 15.32 122.6 15.32C121.791 15.32 121.178 15.0067 120.76 14.38C120.529 14.0247 120.396 13.3914 120.36 12.48H127.6ZM120.4 10.62C120.578 8.98 121.285 8.16 122.52 8.16C123.83 8.16 124.557 8.98 124.7 10.62H120.4ZM129.5 6.2V17H132.3V11.26C132.3 9.62 133.12 8.8 134.76 8.8C135.009 8.8 135.302 8.82667 135.64 8.88V6.04C135.533 6.02667 135.42 6.02 135.3 6.02C134.659 6.02 134.077 6.22083 133.552 6.6225C133.027 7.02477 132.61 7.5906 132.3 8.32V6.2H129.5ZM143.96 6.2V7.86C143.201 6.63333 142.274 6.02 141.18 6.02C140.699 6.02 140.211 6.1325 139.717 6.3575C139.222 6.58333 138.789 6.89083 138.42 7.28C137.327 8.41383 136.78 9.94049 136.78 11.86C136.78 13.5211 137.181 14.8694 137.982 15.905C138.785 16.9417 139.831 17.46 141.12 17.46C141.701 17.46 142.197 17.3475 142.607 17.1225C143.02 16.8964 143.471 16.4889 143.96 15.9V17.36C143.96 18.0096 143.752 18.5387 143.335 18.9475C142.919 19.3558 142.38 19.56 141.72 19.56C140.719 19.56 140.105 19.14 139.88 18.3H137C137.019 19.0889 137.372 19.7623 138.06 20.32C138.912 21.0133 140.098 21.36 141.62 21.36C143.181 21.36 144.404 21.0058 145.29 20.2975C146.177 19.5887 146.62 18.6095 146.62 17.36V6.2H143.96ZM141.7 8.36C142.361 8.36 142.909 8.68667 143.345 9.34C143.782 9.995 144 10.8217 144 11.82C144 12.8017 143.785 13.5967 143.355 14.205C142.924 14.815 142.359 15.12 141.66 15.12C141.048 15.12 140.549 14.815 140.162 14.205C139.774 13.5921 139.58 12.7971 139.58 11.82C139.58 10.7981 139.776 9.96639 140.167 9.325C140.56 8.68167 141.071 8.36 141.7 8.36ZM155.94 6.2L153.7 14.06L151.32 6.2H148.24L152.26 17.44C152.26 18.0004 152.1 18.4538 151.78 18.8C151.46 19.1467 151.04 19.32 150.52 19.32C150.367 19.32 150.12 19.28 149.78 19.2V21.3C150.153 21.3533 150.487 21.38 150.78 21.38C151.56 21.38 152.233 21.2667 152.8 21.04C153.191 20.8798 153.494 20.659 153.71 20.3775C153.927 20.095 154.15 19.6292 154.38 18.98L158.82 6.2H155.94ZM169 2.42H166V17H169V2.42ZM171.56 6.2V17H174.36V10.52C174.36 9.87826 174.564 9.36493 174.973 8.98C175.383 8.59333 175.932 8.4 176.62 8.4C177.82 8.4 178.42 9.04667 178.42 10.34V17H181.22V9.76C181.22 8.56038 180.907 7.63705 180.28 6.99C179.654 6.34333 178.76 6.02 177.6 6.02C176.868 6.02 176.246 6.1575 175.733 6.4325C175.217 6.70874 174.759 7.15124 174.36 7.76V6.2H171.56ZM192.96 10.24C192.86 8.91944 192.398 7.88611 191.575 7.14C190.751 6.39333 189.659 6.02 188.3 6.02C186.681 6.02 185.426 6.52667 184.535 7.54C183.645 8.55276 183.2 9.97943 183.2 11.82C183.2 13.6008 183.643 14.9858 184.53 15.975C185.417 16.965 186.661 17.46 188.26 17.46C189.571 17.46 190.649 17.0825 191.495 16.3275C192.342 15.5717 192.83 14.5492 192.96 13.26H190.28C190.11 13.9604 189.871 14.4587 189.563 14.755C189.254 15.0517 188.82 15.2 188.26 15.2C187.55 15.2 186.996 14.9017 186.598 14.305C186.199 13.7088 186 12.8805 186 11.82C186 10.751 186.18 9.87765 186.54 9.2C186.867 8.58667 187.447 8.28 188.28 8.28C188.849 8.28 189.284 8.42917 189.588 8.7275C189.889 9.02401 190.12 9.52818 190.28 10.24H192.96Z" fill="black"/>
</svg>
