<svg width="48" height="48" viewBox="0 0 48 48" fill="none" xmlns="http://www.w3.org/2000/svg">
<rect width="48" height="48" rx="8" fill="#91D78A"/>
<path d="M22.75 25.5C22.4667 25.5 22.2292 25.4042 22.0375 25.2125C21.8458 25.0208 21.75 24.7833 21.75 24.5V20.5C21.75 20.2167 21.8458 19.9792 22.0375 19.7875C22.2292 19.5958 22.4667 19.5 22.75 19.5H25.75C26.0333 19.5 26.2708 19.5958 26.4625 19.7875C26.6542 19.9792 26.75 20.2167 26.75 20.5V24.5C26.75 24.7833 26.6542 25.0208 26.4625 25.2125C26.2708 25.4042 26.0333 25.5 25.75 25.5H22.75ZM23.25 24H25.25V21H23.25V24ZM15.75 25.5C15.4667 25.5 15.2292 25.4042 15.0375 25.2125C14.8458 25.0208 14.75 24.7833 14.75 24.5V20.5C14.75 20.2167 14.8458 19.9792 15.0375 19.7875C15.2292 19.5958 15.4667 19.5 15.75 19.5H18.75C19.0333 19.5 19.2708 19.5958 19.4625 19.7875C19.6542 19.9792 19.75 20.2167 19.75 20.5V21.5H18.25V21H16.25V24H18.25V23.5H19.75V24.5C19.75 24.7833 19.6542 25.0208 19.4625 25.2125C19.2708 25.4042 19.0333 25.5 18.75 25.5H15.75ZM28.75 28.5V26C28.75 25.7167 28.8458 25.4792 29.0375 25.2875C29.2292 25.0958 29.4667 25 29.75 25H31.75V24H28.75V22.5H32.25C32.5333 22.5 32.7708 22.5958 32.9625 22.7875C33.1542 22.9792 33.25 23.2167 33.25 23.5V25C33.25 25.2833 33.1542 25.5208 32.9625 25.7125C32.7708 25.9042 32.5333 26 32.25 26H30.25V27H33.25V28.5H28.75Z" fill="#00450D"/>
</svg>
