<svg width="168" height="28" viewBox="0 0 168 28" fill="none" xmlns="http://www.w3.org/2000/svg">
<path d="M0 25.875V23.375H15V25.875H0ZM7.0625 19.8125L0 12.75L2.625 10.0625L9.75 17.125L7.0625 19.8125ZM15 11.875L7.9375 4.75L10.625 2.125L17.6875 9.1875L15 11.875ZM20.75 24.625L4.4375 8.3125L6.1875 6.5625L22.5 22.875L20.75 24.625Z" fill="#00450D"/>
<path d="M48.72 9.16H42.88V11.66H46.2C46.1273 12.4053 45.8873 13.0187 45.48 13.5C45.121 13.9388 44.6768 14.2821 44.1475 14.53C43.6208 14.7767 43.0716 14.9 42.5 14.9C41.2803 14.9 40.282 14.4217 39.505 13.465C38.7283 12.5087 38.34 11.2804 38.34 9.78C38.34 8.20729 38.7 6.97479 39.42 6.0825C40.1422 5.1875 41.1422 4.74 42.42 4.74C43.4724 4.74 44.3324 5.03333 45 5.62C45.3778 5.94383 45.6778 6.4305 45.9 7.08H48.72C48.5402 5.57156 47.8819 4.37739 46.745 3.4975C45.6102 2.61917 44.1618 2.18 42.4 2.18C40.3006 2.18 38.5989 2.88583 37.295 4.2975C35.9917 5.70857 35.34 7.5494 35.34 9.82C35.34 12.0293 35.9842 13.8551 37.2725 15.2975C38.5602 16.7392 40.1893 17.46 42.16 17.46C43.1405 17.46 43.9788 17.275 44.675 16.905C45.3719 16.5346 46.0003 15.9396 46.56 15.12L46.92 17.04H48.72V9.16ZM56.12 6.02C54.4709 6.02 53.1717 6.53083 52.2225 7.5525C51.2742 8.57319 50.8 9.96902 50.8 11.74C50.8 13.5195 51.275 14.9179 52.225 15.935C53.1746 16.9517 54.4796 17.46 56.14 17.46C57.7894 17.46 59.0919 16.955 60.0475 15.945C61.0025 14.9357 61.48 13.5607 61.48 11.82C61.48 9.99031 61.0092 8.56614 60.0675 7.5475C59.1261 6.52917 57.8103 6.02 56.12 6.02ZM56.14 8.28C56.9098 8.28 57.5257 8.59833 57.9875 9.235C58.4492 9.87142 58.68 10.7198 58.68 11.78C58.68 12.79 58.4442 13.6125 57.9725 14.2475C57.5009 14.8825 56.89 15.2 56.14 15.2C55.3792 15.2 54.7658 14.8833 54.3 14.25C53.8333 13.6155 53.6 12.7789 53.6 11.74C53.6 10.7011 53.8333 9.86446 54.3 9.23C54.7658 8.59667 55.3792 8.28 56.14 8.28ZM68.84 17L72.56 6.2H69.6L67.42 14.1L65.08 6.2H62.12L65.9 17H68.84ZM77.22 2.42H74.22V17H77.22V2.42ZM79.78 6.2V17H82.58V10.52C82.58 9.87826 82.7842 9.36493 83.1925 8.98C83.6027 8.59333 84.1518 8.4 84.84 8.4C86.04 8.4 86.64 9.04667 86.64 10.34V17H89.44V9.76C89.44 8.56038 89.1267 7.63705 88.5 6.99C87.8737 6.34333 86.9804 6.02 85.82 6.02C85.0885 6.02 84.466 6.1575 83.9525 6.4325C83.4367 6.70874 82.9792 7.15124 82.58 7.76V6.2H79.78ZM98.84 17H101.64V2.42H98.84V7.6C98.1573 6.54667 97.164 6.02 95.86 6.02C94.5702 6.02 93.491 6.56917 92.6225 7.6675C91.7542 8.76561 91.32 10.1298 91.32 11.76C91.32 13.2963 91.7067 14.623 92.48 15.74C92.8485 16.2678 93.3393 16.687 93.9525 16.9975C94.5614 17.3058 95.1972 17.46 95.86 17.46C97.1726 17.46 98.1659 16.94 98.84 15.9V17ZM96.48 8.36C97.1908 8.36 97.7617 8.67333 98.1925 9.3C98.6242 9.92788 98.84 10.7612 98.84 11.8C98.84 12.7811 98.6217 13.5795 98.185 14.195C97.7475 14.8117 97.1792 15.12 96.48 15.12C95.7811 15.12 95.2128 14.8075 94.775 14.1825C94.3383 13.5591 94.12 12.7516 94.12 11.76C94.12 10.7504 94.3383 9.93119 94.775 9.3025C95.2114 8.67417 95.7798 8.36 96.48 8.36ZM107.1 6.2H104.3V17H107.1V6.2ZM107.1 2.42H104.3V4.92H107.1V2.42ZM119 16.66C118.759 16.4288 118.592 16.2188 118.5 16.03C118.407 15.8387 118.36 15.6087 118.36 15.34V9.34C118.36 7.12667 116.887 6.02 113.94 6.02C111.04 6.02 109.5 7.26667 109.32 9.76H112.02C112.09 9.19759 112.265 8.81092 112.545 8.6C112.828 8.38667 113.313 8.28 114 8.28C115.08 8.28 115.62 8.64 115.62 9.36C115.62 9.728 115.46 10.008 115.14 10.2C114.95 10.3 114.782 10.3675 114.635 10.4025C114.488 10.4375 114.07 10.51 113.38 10.62L112.26 10.82C110.14 11.1766 109.08 12.31 109.08 14.22C109.08 15.1919 109.379 15.9744 109.977 16.5675C110.578 17.1625 111.372 17.46 112.36 17.46C113.559 17.46 114.653 16.9467 115.64 15.92C115.64 16.1996 115.661 16.4096 115.702 16.55C115.744 16.6898 115.83 16.8398 115.96 17H119V16.66ZM115.62 12.66C115.62 13.4706 115.427 14.0964 115.042 14.5375C114.657 14.9792 114.109 15.2 113.4 15.2C112.931 15.2 112.56 15.0833 112.287 14.85C112.016 14.6171 111.88 14.3005 111.88 13.9C111.88 13.4809 112.002 13.1592 112.245 12.935C112.487 12.7119 112.899 12.5403 113.48 12.42L114.44 12.24C114.976 12.1386 115.37 12.0252 115.62 11.9V12.66ZM129.78 10.72H136.76V8.22H129.78V4.92H137.32V2.42H126.78V17H137.68V14.5H129.78V10.72ZM150.48 6.86C150.47 5.3491 149.974 4.1916 148.992 3.3875C148.01 2.5825 146.599 2.18 144.76 2.18C143.01 2.18 141.653 2.57167 140.687 3.355C139.722 4.13826 139.24 5.23993 139.24 6.66C139.24 7.79131 139.553 8.65714 140.18 9.2575C140.808 9.85949 141.862 10.3003 143.34 10.58L145.38 10.98C146.383 11.1705 147.09 11.4239 147.5 11.74C147.913 12.0583 148.12 12.5116 148.12 13.1C148.12 13.7092 147.857 14.1884 147.332 14.5375C146.809 14.8858 146.091 15.06 145.18 15.06C144.163 15.06 143.374 14.8517 142.812 14.435C142.254 14.0208 141.95 13.4225 141.9 12.64H138.98C139.07 14.199 139.634 15.3923 140.672 16.22C141.71 17.0467 143.159 17.46 145.02 17.46C146.902 17.46 148.369 17.0458 149.42 16.2175C150.473 15.3877 151 14.2285 151 12.74C151 11.591 150.694 10.6985 150.082 10.0625C149.472 9.42774 148.491 8.98024 147.14 8.72L144.86 8.28C143.788 8.06963 143.061 7.83296 142.677 7.57C142.292 7.30574 142.1 6.90907 142.1 6.38C142.1 5.82828 142.325 5.39078 142.775 5.0675C143.227 4.7425 143.842 4.58 144.62 4.58C146.557 4.58 147.577 5.34 147.68 6.86H150.48ZM165.8 9.16H159.96V11.66H163.28C163.207 12.4053 162.967 13.0187 162.56 13.5C162.201 13.9388 161.757 14.2821 161.228 14.53C160.701 14.7767 160.152 14.9 159.58 14.9C158.36 14.9 157.362 14.4217 156.585 13.465C155.808 12.5087 155.42 11.2804 155.42 9.78C155.42 8.20729 155.78 6.97479 156.5 6.0825C157.222 5.1875 158.222 4.74 159.5 4.74C160.552 4.74 161.412 5.03333 162.08 5.62C162.458 5.94383 162.758 6.4305 162.98 7.08H165.8C165.62 5.57156 164.962 4.37739 163.825 3.4975C162.69 2.61917 161.242 2.18 159.48 2.18C157.381 2.18 155.679 2.88583 154.375 4.2975C153.072 5.70857 152.42 7.5494 152.42 9.82C152.42 12.0293 153.064 13.8551 154.353 15.2975C155.64 16.7392 157.269 17.46 159.24 17.46C160.22 17.46 161.059 17.275 161.755 16.905C162.452 16.5346 163.08 15.9396 163.64 15.12L164 17.04H165.8V9.16Z" fill="black"/>
</svg>
