<svg width="167" height="28" viewBox="0 0 167 28" fill="none" xmlns="http://www.w3.org/2000/svg">
<path d="M3 21.6202C2.0625 20.6827 1.32812 19.5994 0.796875 18.3702C0.265625 17.141 0 15.8702 0 14.5577C0 13.2452 0.25 11.9483 0.75 10.6671C1.25 9.38583 2.0625 8.18271 3.1875 7.05771C3.91667 6.32854 4.81771 5.70354 5.89062 5.18271C6.96354 4.66187 8.23438 4.25041 9.70312 3.94833C11.1719 3.64625 12.849 3.46396 14.7344 3.40146C16.6198 3.33896 18.7292 3.41187 21.0625 3.62021C21.2292 5.82854 21.2812 7.85979 21.2188 9.71396C21.1562 11.5681 20.9844 13.24 20.7031 14.7296C20.4219 16.2192 20.026 17.5212 19.5156 18.6358C19.0052 19.7504 18.375 20.6827 17.625 21.4327C16.5208 22.5369 15.349 23.3442 14.1094 23.8546C12.8698 24.365 11.6042 24.6202 10.3125 24.6202C8.95833 24.6202 7.63542 24.3546 6.34375 23.8233C5.05208 23.2921 3.9375 22.5577 3 21.6202ZM6.5 21.1202C7.10417 21.4744 7.72396 21.7296 8.35938 21.8858C8.99479 22.0421 9.64583 22.1202 10.3125 22.1202C11.2708 22.1202 12.2188 21.9275 13.1562 21.5421C14.0938 21.1567 14.9896 20.5369 15.8438 19.6827C16.2188 19.3077 16.599 18.7817 16.9844 18.1046C17.3698 17.4275 17.7031 16.5421 17.9844 15.4483C18.2656 14.3546 18.4792 13.0317 18.625 11.4796C18.7708 9.9275 18.7917 8.07854 18.6875 5.93271C17.6667 5.89104 16.5156 5.87541 15.2344 5.88583C13.9531 5.89625 12.6771 5.99521 11.4062 6.18271C10.1354 6.37021 8.92708 6.67229 7.78125 7.08896C6.63542 7.50562 5.69792 8.07854 4.96875 8.80771C4.03125 9.74521 3.38542 10.6723 3.03125 11.589C2.67708 12.5056 2.5 13.391 2.5 14.2452C2.5 15.4744 2.73438 16.5525 3.20312 17.4796C3.67188 18.4067 4.08333 19.0577 4.4375 19.4327C5.3125 17.766 6.46875 16.1671 7.90625 14.6358C9.34375 13.1046 11.0208 11.8494 12.9375 10.8702C11.4375 12.1827 10.1302 13.6671 9.01562 15.3233C7.90104 16.9796 7.0625 18.9119 6.5 21.1202Z" fill="#00450D"/>
<path d="M47.4641 9.16H41.6241V11.66H44.9441C44.8714 12.4053 44.6314 13.0187 44.2241 13.5C43.8651 13.9388 43.421 14.2821 42.8916 14.53C42.3649 14.7767 41.8157 14.9 41.2441 14.9C40.0244 14.9 39.0261 14.4217 38.2491 13.465C37.4725 12.5087 37.0841 11.2804 37.0841 9.78C37.0841 8.20729 37.4441 6.97479 38.1641 6.0825C38.8863 5.1875 39.8863 4.74 41.1641 4.74C42.2166 4.74 43.0766 5.03333 43.7441 5.62C44.1219 5.94383 44.4219 6.4305 44.6441 7.08H47.4641C47.2843 5.57156 46.626 4.37739 45.4891 3.4975C44.3543 2.61917 42.906 2.18 41.1441 2.18C39.0447 2.18 37.343 2.88583 36.0391 4.2975C34.7358 5.70857 34.0841 7.5494 34.0841 9.82C34.0841 12.0293 34.7283 13.8551 36.0166 15.2975C37.3043 16.7392 38.9335 17.46 40.9041 17.46C41.8846 17.46 42.723 17.275 43.4191 16.905C44.1161 16.5346 44.7444 15.9396 45.3041 15.12L45.6641 17.04H47.4641V9.16ZM50.0641 6.2V17H52.8641V11.26C52.8641 9.62 53.6841 8.8 55.3241 8.8C55.573 8.8 55.8664 8.82667 56.2041 8.88V6.04C56.0975 6.02667 55.9841 6.02 55.8641 6.02C55.2236 6.02 54.6411 6.22083 54.1166 6.6225C53.5914 7.02477 53.1739 7.5906 52.8641 8.32V6.2H50.0641ZM67.1441 12.48C67.1575 12.32 67.1641 12.16 67.1641 12C67.1641 10.9251 67.0241 9.97846 66.7441 9.16C66.384 8.1796 65.7932 7.41126 64.9716 6.855C64.1495 6.29833 63.1937 6.02 62.1041 6.02C60.5555 6.02 59.3347 6.54417 58.4416 7.5925C57.55 8.63924 57.1041 10.0684 57.1041 11.88C57.1041 13.6096 57.545 14.9721 58.4266 15.9675C59.3079 16.9625 60.5138 17.46 62.0441 17.46C63.2562 17.46 64.3145 17.1442 65.2191 16.5125C66.1263 15.879 66.7347 15.0282 67.0441 13.96H64.2841C64.1139 14.3907 63.8422 14.7249 63.4691 14.9625C63.095 15.2008 62.6533 15.32 62.1441 15.32C61.3353 15.32 60.7219 15.0067 60.3041 14.38C60.0732 14.0247 59.9399 13.3914 59.9041 12.48H67.1441ZM59.9441 10.62C60.122 8.98 60.8286 8.16 62.0641 8.16C63.374 8.16 64.1006 8.98 64.2441 10.62H59.9441ZM78.2641 12.48C78.2775 12.32 78.2841 12.16 78.2841 12C78.2841 10.9251 78.1441 9.97846 77.8641 9.16C77.504 8.1796 76.9132 7.41126 76.0916 6.855C75.2695 6.29833 74.3137 6.02 73.2241 6.02C71.6755 6.02 70.4547 6.54417 69.5616 7.5925C68.67 8.63924 68.2241 10.0684 68.2241 11.88C68.2241 13.6096 68.665 14.9721 69.5466 15.9675C70.4279 16.9625 71.6338 17.46 73.1641 17.46C74.3762 17.46 75.4345 17.1442 76.3391 16.5125C77.2463 15.879 77.8547 15.0282 78.1641 13.96H75.4041C75.2339 14.3907 74.9622 14.7249 74.5891 14.9625C74.215 15.2008 73.7733 15.32 73.2641 15.32C72.4553 15.32 71.8419 15.0067 71.4241 14.38C71.1932 14.0247 71.0599 13.3914 71.0241 12.48H78.2641ZM71.0641 10.62C71.242 8.98 71.9486 8.16 73.1841 8.16C74.494 8.16 75.2206 8.98 75.3641 10.62H71.0641ZM80.1641 6.2V17H82.9641V10.52C82.9641 9.87826 83.1683 9.36493 83.5766 8.98C83.9868 8.59333 84.536 8.4 85.2241 8.4C86.4241 8.4 87.0241 9.04667 87.0241 10.34V17H89.8241V9.76C89.8241 8.56038 89.5108 7.63705 88.8841 6.99C88.2578 6.34333 87.3645 6.02 86.2041 6.02C85.4726 6.02 84.8501 6.1575 84.3366 6.4325C83.8208 6.70874 83.3633 7.15124 82.9641 7.76V6.2H80.1641ZM95.6041 10.72H101.984V8.22H95.6041V4.92H102.844V2.42H92.6041V17H95.6041V10.72ZM107.324 6.2H104.524V17H107.324V6.2ZM107.324 2.42H104.524V4.92H107.324V2.42ZM110.004 6.2V17H112.804V10.52C112.804 9.87826 113.008 9.36493 113.417 8.98C113.827 8.59333 114.376 8.4 115.064 8.4C116.264 8.4 116.864 9.04667 116.864 10.34V17H119.664V9.76C119.664 8.56038 119.351 7.63705 118.724 6.99C118.098 6.34333 117.205 6.02 116.044 6.02C115.313 6.02 114.69 6.1575 114.177 6.4325C113.661 6.70874 113.203 7.15124 112.804 7.76V6.2H110.004ZM131.444 16.66C131.203 16.4288 131.036 16.2188 130.944 16.03C130.851 15.8387 130.804 15.6087 130.804 15.34V9.34C130.804 7.12667 129.331 6.02 126.384 6.02C123.484 6.02 121.944 7.26667 121.764 9.76H124.464C124.534 9.19759 124.709 8.81092 124.989 8.6C125.272 8.38667 125.757 8.28 126.444 8.28C127.524 8.28 128.064 8.64 128.064 9.36C128.064 9.728 127.904 10.008 127.584 10.2C127.394 10.3 127.226 10.3675 127.079 10.4025C126.932 10.4375 126.514 10.51 125.824 10.62L124.704 10.82C122.584 11.1766 121.524 12.31 121.524 14.22C121.524 15.1919 121.823 15.9744 122.422 16.5675C123.022 17.1625 123.816 17.46 124.804 17.46C126.004 17.46 127.097 16.9467 128.084 15.92C128.084 16.1996 128.105 16.4096 128.147 16.55C128.188 16.6898 128.274 16.8398 128.404 17H131.444V16.66ZM128.064 12.66C128.064 13.4706 127.872 14.0964 127.487 14.5375C127.101 14.9792 126.554 15.2 125.844 15.2C125.375 15.2 125.004 15.0833 124.732 14.85C124.46 14.6171 124.324 14.3005 124.324 13.9C124.324 13.4809 124.446 13.1592 124.689 12.935C124.931 12.7119 125.343 12.5403 125.924 12.42L126.884 12.24C127.42 12.1386 127.814 12.0252 128.064 11.9V12.66ZM133.344 6.2V17H136.144V10.52C136.144 9.87826 136.348 9.36493 136.757 8.98C137.167 8.59333 137.716 8.4 138.404 8.4C139.604 8.4 140.204 9.04667 140.204 10.34V17H143.004V9.76C143.004 8.56038 142.691 7.63705 142.064 6.99C141.438 6.34333 140.545 6.02 139.384 6.02C138.653 6.02 138.03 6.1575 137.517 6.4325C137.001 6.70874 136.543 7.15124 136.144 7.76V6.2H133.344ZM154.744 10.24C154.644 8.91944 154.182 7.88611 153.359 7.14C152.535 6.39333 151.444 6.02 150.084 6.02C148.465 6.02 147.21 6.52667 146.319 7.54C145.429 8.55276 144.984 9.97943 144.984 11.82C144.984 13.6008 145.427 14.9858 146.314 15.975C147.202 16.965 148.445 17.46 150.044 17.46C151.355 17.46 152.433 17.0825 153.279 16.3275C154.126 15.5717 154.614 14.5492 154.744 13.26H152.064C151.894 13.9604 151.655 14.4587 151.347 14.755C151.038 15.0517 150.604 15.2 150.044 15.2C149.334 15.2 148.78 14.9017 148.382 14.305C147.983 13.7088 147.784 12.8805 147.784 11.82C147.784 10.751 147.964 9.87765 148.324 9.2C148.651 8.58667 149.231 8.28 150.064 8.28C150.633 8.28 151.069 8.42917 151.372 8.7275C151.673 9.02401 151.904 9.52818 152.064 10.24H154.744ZM166.044 12.48C166.057 12.32 166.064 12.16 166.064 12C166.064 10.9251 165.924 9.97846 165.644 9.16C165.284 8.1796 164.693 7.41126 163.872 6.855C163.05 6.29833 162.094 6.02 161.004 6.02C159.455 6.02 158.235 6.54417 157.342 7.5925C156.45 8.63924 156.004 10.0684 156.004 11.88C156.004 13.6096 156.445 14.9721 157.327 15.9675C158.208 16.9625 159.414 17.46 160.944 17.46C162.156 17.46 163.215 17.1442 164.119 16.5125C165.026 15.879 165.635 15.0282 165.944 13.96H163.184C163.014 14.3907 162.742 14.7249 162.369 14.9625C161.995 15.2008 161.553 15.32 161.044 15.32C160.235 15.32 159.622 15.0067 159.204 14.38C158.973 14.0247 158.84 13.3914 158.804 12.48H166.044ZM158.844 10.62C159.022 8.98 159.729 8.16 160.964 8.16C162.274 8.16 163.001 8.98 163.144 10.62H158.844Z" fill="black"/>
</svg>
