<svg width="48" height="48" viewBox="0 0 48 48" fill="none" xmlns="http://www.w3.org/2000/svg">
<rect width="48" height="48" rx="8" fill="#A9C7FF"/>
<path d="M24.1 33C23.8167 33 23.5792 32.9042 23.3875 32.7125C23.1958 32.5208 23.1 32.2833 23.1 32C23.1 31.8833 23.125 31.7625 23.175 31.6375C23.225 31.5125 23.3 31.4 23.4 31.3L28.025 26.675L27.3 25.95L22.7 30.575C22.6 30.675 22.4917 30.75 22.375 30.8C22.2583 30.85 22.1333 30.875 22 30.875C21.7167 30.875 21.4792 30.7792 21.2875 30.5875C21.0958 30.3958 21 30.1583 21 29.875C21 29.7083 21.025 29.5708 21.075 29.4625C21.125 29.3542 21.1917 29.2583 21.275 29.175L25.9 24.55L25.2 23.85L20.575 28.45C20.475 28.55 20.3667 28.625 20.25 28.675C20.1333 28.725 20 28.75 19.85 28.75C19.5833 28.75 19.35 28.65 19.15 28.45C18.95 28.25 18.85 28.0167 18.85 27.75C18.85 27.6167 18.875 27.4917 18.925 27.375C18.975 27.2583 19.05 27.15 19.15 27.05L23.775 22.425L23.05 21.725L18.45 26.35C18.3667 26.4333 18.2667 26.5 18.15 26.55C18.0333 26.6 17.8917 26.625 17.725 26.625C17.4417 26.625 17.2042 26.5292 17.0125 26.3375C16.8208 26.1458 16.725 25.9083 16.725 25.625C16.725 25.4917 16.75 25.3667 16.8 25.25C16.85 25.1333 16.925 25.025 17.025 24.925L22.6 19.35L26.35 23.125C26.5333 23.3083 26.75 23.4542 27 23.5625C27.25 23.6708 27.5 23.725 27.75 23.725C28.2833 23.725 28.75 23.5375 29.15 23.1625C29.55 22.7875 29.75 22.3083 29.75 21.725C29.75 21.4917 29.7083 21.25 29.625 21C29.5417 20.75 29.3917 20.5167 29.175 20.3L24.7 15.825C24.9833 15.5583 25.3 15.3542 25.65 15.2125C26 15.0708 26.35 15 26.7 15C27.1333 15 27.5333 15.0708 27.9 15.2125C28.2667 15.3542 28.6 15.575 28.9 15.875L33.125 20.125C33.425 20.425 33.6458 20.7583 33.7875 21.125C33.9292 21.4917 34 21.9167 34 22.4C34 22.7333 33.925 23.0708 33.775 23.4125C33.625 23.7542 33.4083 24.0667 33.125 24.35L24.8 32.7C24.6667 32.8333 24.55 32.9167 24.45 32.95C24.35 32.9833 24.2333 33 24.1 33ZM15.525 25L14.875 24.35C14.5917 24.0833 14.375 23.7667 14.225 23.4C14.075 23.0333 14 22.65 14 22.25C14 21.8167 14.0833 21.4167 14.25 21.05C14.4167 20.6833 14.625 20.375 14.875 20.125L19.1 15.875C19.3667 15.6083 19.6833 15.3958 20.05 15.2375C20.4167 15.0792 20.775 15 21.125 15C21.575 15 21.975 15.0625 22.325 15.1875C22.675 15.3125 23.0167 15.5417 23.35 15.875L28.475 21C28.575 21.1 28.65 21.2083 28.7 21.325C28.75 21.4417 28.775 21.5667 28.775 21.7C28.775 21.9667 28.675 22.2 28.475 22.4C28.275 22.6 28.0417 22.7 27.775 22.7C27.625 22.7 27.5 22.6792 27.4 22.6375C27.3 22.5958 27.1917 22.5167 27.075 22.4L22.575 17.95L15.525 25Z" fill="#001B3D"/>
</svg>
