<svg width="161" height="28" viewBox="0 0 161 28" fill="none" xmlns="http://www.w3.org/2000/svg">
<path d="M0 26.5V11.4688L8.75 7.75V10.25L15 7.75V11.5H25V26.5H0ZM2.5 24H22.5V14H12.5V11.4375L6.25 13.9375V11.5L2.5 13.1562V24ZM11.25 21.5H13.75V16.5H11.25V21.5ZM6.25 21.5H8.75V16.5H6.25V21.5ZM16.25 21.5H18.75V16.5H16.25V21.5ZM25 11.5H18.75L20 1.5H23.75L25 11.5ZM2.5 24H6.25H12.5H22.5H2.5Z" fill="#00450D"/>
<path d="M41.32 5.64L43.94 17H46.94L49.52 5.64V17H52.52V2.42H48L45.44 14.02L42.8 2.42H38.32V17H41.32V5.64ZM65.8 6.86C65.79 5.3491 65.2942 4.1916 64.3125 3.3875C63.3297 2.5825 61.9189 2.18 60.08 2.18C58.3301 2.18 56.9726 2.57167 56.0075 3.355C55.0425 4.13826 54.56 5.23993 54.56 6.66C54.56 7.79131 54.8733 8.65714 55.5 9.2575C56.1284 9.85949 57.1817 10.3003 58.66 10.58L60.7 10.98C61.7028 11.1705 62.4095 11.4239 62.82 11.74C63.2333 12.0583 63.44 12.5116 63.44 13.1C63.44 13.7092 63.1775 14.1884 62.6525 14.5375C62.1287 14.8858 61.4112 15.06 60.5 15.06C59.4832 15.06 58.694 14.8517 58.1325 14.435C57.5743 14.0208 57.2702 13.4225 57.22 12.64H54.3C54.3899 14.199 54.9541 15.3923 55.9925 16.22C57.0296 17.0467 58.4788 17.46 60.34 17.46C62.2219 17.46 63.6886 17.0458 64.74 16.2175C65.7933 15.3877 66.32 14.2285 66.32 12.74C66.32 11.591 66.0142 10.6985 65.4025 10.0625C64.7921 9.42774 63.8112 8.98024 62.46 8.72L60.18 8.28C59.1081 8.06963 58.3806 7.83296 57.9975 7.57C57.6125 7.30574 57.42 6.90907 57.42 6.38C57.42 5.82828 57.645 5.39078 58.095 5.0675C58.5474 4.7425 59.1624 4.58 59.94 4.58C61.8773 4.58 62.8973 5.34 63 6.86H65.8ZM71.32 5.64L73.94 17H76.94L79.52 5.64V17H82.52V2.42H78L75.44 14.02L72.8 2.42H68.32V17H71.32V5.64ZM88.24 10.72H95.22V8.22H88.24V4.92H95.78V2.42H85.24V17H96.14V14.5H88.24V10.72ZM104.2 17H110.76C112.373 17 113.6 16.6467 114.44 15.94C114.88 15.5699 115.23 15.1016 115.49 14.535C115.75 13.9682 115.88 13.3899 115.88 12.8C115.88 11.373 115.073 10.193 113.46 9.26C114.18 8.8 114.693 8.34 115 7.88C115.307 7.42 115.46 6.88 115.46 6.26C115.46 5.75157 115.342 5.25074 115.107 4.7575C114.874 4.26697 114.551 3.84113 114.14 3.48C113.319 2.77333 112.172 2.42 110.7 2.42H104.2V17ZM107.2 4.92H110.46C111.873 4.92 112.58 5.46667 112.58 6.56C112.58 7.66667 111.873 8.22 110.46 8.22H107.2V4.92ZM107.2 10.72H110.78C112.26 10.72 113 11.3533 113 12.62C113 13.8733 112.26 14.5 110.78 14.5H107.2V10.72ZM123.02 6.02C121.371 6.02 120.072 6.53083 119.122 7.5525C118.174 8.57319 117.7 9.96902 117.7 11.74C117.7 13.5195 118.175 14.9179 119.125 15.935C120.075 16.9517 121.38 17.46 123.04 17.46C124.689 17.46 125.992 16.955 126.948 15.945C127.903 14.9357 128.38 13.5607 128.38 11.82C128.38 9.99031 127.909 8.56614 126.967 7.5475C126.026 6.52917 124.71 6.02 123.02 6.02ZM123.04 8.28C123.81 8.28 124.426 8.59833 124.887 9.235C125.349 9.87142 125.58 10.7198 125.58 11.78C125.58 12.79 125.344 13.6125 124.872 14.2475C124.401 14.8825 123.79 15.2 123.04 15.2C122.279 15.2 121.666 14.8833 121.2 14.25C120.733 13.6155 120.5 12.7789 120.5 11.74C120.5 10.7011 120.733 9.86446 121.2 9.23C121.666 8.59667 122.279 8.28 123.04 8.28ZM139.7 16.66C139.459 16.4288 139.292 16.2188 139.2 16.03C139.107 15.8387 139.06 15.6087 139.06 15.34V9.34C139.06 7.12667 137.587 6.02 134.64 6.02C131.74 6.02 130.2 7.26667 130.02 9.76H132.72C132.79 9.19759 132.965 8.81092 133.245 8.6C133.528 8.38667 134.013 8.28 134.7 8.28C135.78 8.28 136.32 8.64 136.32 9.36C136.32 9.728 136.16 10.008 135.84 10.2C135.65 10.3 135.482 10.3675 135.335 10.4025C135.188 10.4375 134.77 10.51 134.08 10.62L132.96 10.82C130.84 11.1766 129.78 12.31 129.78 14.22C129.78 15.1919 130.079 15.9744 130.678 16.5675C131.278 17.1625 132.072 17.46 133.06 17.46C134.259 17.46 135.353 16.9467 136.34 15.92C136.34 16.1996 136.361 16.4096 136.403 16.55C136.444 16.6898 136.53 16.8398 136.66 17H139.7V16.66ZM136.32 12.66C136.32 13.4706 136.128 14.0964 135.743 14.5375C135.357 14.9792 134.81 15.2 134.1 15.2C133.631 15.2 133.26 15.0833 132.988 14.85C132.716 14.6171 132.58 14.3005 132.58 13.9C132.58 13.4809 132.702 13.1592 132.945 12.935C133.187 12.7119 133.599 12.5403 134.18 12.42L135.14 12.24C135.676 12.1386 136.07 12.0252 136.32 11.9V12.66ZM141.6 6.2V17H144.4V11.26C144.4 9.62 145.22 8.8 146.86 8.8C147.109 8.8 147.402 8.82667 147.74 8.88V6.04C147.633 6.02667 147.52 6.02 147.4 6.02C146.759 6.02 146.177 6.22083 145.652 6.6225C145.127 7.02477 144.71 7.5906 144.4 8.32V6.2H141.6ZM156.22 17H159.02V2.42H156.22V7.6C155.537 6.54667 154.544 6.02 153.24 6.02C151.95 6.02 150.871 6.56917 150.003 7.6675C149.134 8.76561 148.7 10.1298 148.7 11.76C148.7 13.2963 149.087 14.623 149.86 15.74C150.228 16.2678 150.719 16.687 151.333 16.9975C151.941 17.3058 152.577 17.46 153.24 17.46C154.553 17.46 155.546 16.94 156.22 15.9V17ZM153.86 8.36C154.571 8.36 155.142 8.67333 155.573 9.3C156.004 9.92788 156.22 10.7612 156.22 11.8C156.22 12.7811 156.002 13.5795 155.565 14.195C155.128 14.8117 154.559 15.12 153.86 15.12C153.161 15.12 152.593 14.8075 152.155 14.1825C151.718 13.5591 151.5 12.7516 151.5 11.76C151.5 10.7504 151.718 9.93119 152.155 9.3025C152.591 8.67417 153.16 8.36 153.86 8.36Z" fill="black"/>
</svg>
