<svg width="25" height="25" viewBox="0 0 25 25" fill="none" xmlns="http://www.w3.org/2000/svg">
<path d="M16.875 18.625L18.625 16.875C18.75 16.75 18.8125 16.6042 18.8125 16.4375C18.8125 16.2708 18.75 16.125 18.625 16L14.375 11.7188C14.4583 11.4896 14.5208 11.2604 14.5625 11.0312C14.6042 10.8021 14.625 10.5417 14.625 10.25C14.625 9.0625 14.2031 8.04688 13.3594 7.20312C12.5156 6.35938 11.5 5.9375 10.3125 5.9375C9.95833 5.9375 9.60417 5.98438 9.25 6.07812C8.89583 6.17188 8.55208 6.30208 8.21875 6.46875L11.1562 9.40625L9.40625 11.1562L6.46875 8.21875C6.30208 8.55208 6.17188 8.89583 6.07812 9.25C5.98438 9.60417 5.9375 9.95833 5.9375 10.3125C5.9375 11.5 6.35938 12.5156 7.20312 13.3594C8.04688 14.2031 9.0625 14.625 10.25 14.625C10.5208 14.625 10.776 14.6042 11.0156 14.5625C11.2552 14.5208 11.4896 14.4583 11.7188 14.375L16 18.625C16.125 18.75 16.2708 18.8125 16.4375 18.8125C16.6042 18.8125 16.75 18.75 16.875 18.625ZM12.5 25C10.7708 25 9.14583 24.6719 7.625 24.0156C6.10417 23.3594 4.78125 22.4688 3.65625 21.3438C2.53125 20.2188 1.64062 18.8958 0.984375 17.375C0.328125 15.8542 0 14.2292 0 12.5C0 10.7708 0.328125 9.14583 0.984375 7.625C1.64062 6.10417 2.53125 4.78125 3.65625 3.65625C4.78125 2.53125 6.10417 1.64062 7.625 0.984375C9.14583 0.328125 10.7708 0 12.5 0C14.2292 0 15.8542 0.328125 17.375 0.984375C18.8958 1.64062 20.2188 2.53125 21.3438 3.65625C22.4688 4.78125 23.3594 6.10417 24.0156 7.625C24.6719 9.14583 25 10.7708 25 12.5C25 14.2292 24.6719 15.8542 24.0156 17.375C23.3594 18.8958 22.4688 20.2188 21.3438 21.3438C20.2188 22.4688 18.8958 23.3594 17.375 24.0156C15.8542 24.6719 14.2292 25 12.5 25ZM12.5 22.5C15.2917 22.5 17.6562 21.5312 19.5938 19.5938C21.5312 17.6562 22.5 15.2917 22.5 12.5C22.5 9.70833 21.5312 7.34375 19.5938 5.40625C17.6562 3.46875 15.2917 2.5 12.5 2.5C9.70833 2.5 7.34375 3.46875 5.40625 5.40625C3.46875 7.34375 2.5 9.70833 2.5 12.5C2.5 15.2917 3.46875 17.6562 5.40625 19.5938C7.34375 21.5312 9.70833 22.5 12.5 22.5Z" fill="#1B6D24"/>
</svg>
