<svg width="172" height="28" viewBox="0 0 172 28" fill="none" xmlns="http://www.w3.org/2000/svg">
<path d="M12.5 26.5C10.7708 26.5 9.14583 26.1719 7.625 25.5156C6.10417 24.8594 4.78125 23.9688 3.65625 22.8438C2.53125 21.7188 1.64062 20.3958 0.984375 18.875C0.328125 17.3542 0 15.7292 0 14C0 12.2708 0.328125 10.6458 0.984375 9.125C1.64062 7.60417 2.53125 6.28125 3.65625 5.15625C4.78125 4.03125 6.10417 3.14062 7.625 2.48438C9.14583 1.82812 10.7708 1.5 12.5 1.5C14.2292 1.5 15.8542 1.82812 17.375 2.48438C18.8958 3.14062 20.2188 4.03125 21.3438 5.15625C22.4688 6.28125 23.3594 7.60417 24.0156 9.125C24.6719 10.6458 25 12.2708 25 14C25 15.7292 24.6719 17.3542 24.0156 18.875C23.3594 20.3958 22.4688 21.7188 21.3438 22.8438C20.2188 23.9688 18.8958 24.8594 17.375 25.5156C15.8542 26.1719 14.2292 26.5 12.5 26.5ZM12.5 24C15.2917 24 17.6562 23.0312 19.5938 21.0938C21.5312 19.1562 22.5 16.7917 22.5 14C22.5 13.8542 22.4948 13.7031 22.4844 13.5469C22.474 13.3906 22.4688 13.2604 22.4688 13.1562C22.3646 13.7604 22.0833 14.2604 21.625 14.6562C21.1667 15.0521 20.625 15.25 20 15.25H17.5C16.8125 15.25 16.224 15.0052 15.7344 14.5156C15.2448 14.026 15 13.4375 15 12.75V11.5H10V9C10 8.3125 10.2448 7.72396 10.7344 7.23438C11.224 6.74479 11.8125 6.5 12.5 6.5H13.75C13.75 6.02083 13.8802 5.59896 14.1406 5.23438C14.401 4.86979 14.7188 4.57292 15.0938 4.34375C14.6771 4.23958 14.2552 4.15625 13.8281 4.09375C13.401 4.03125 12.9583 4 12.5 4C9.70833 4 7.34375 4.96875 5.40625 6.90625C3.46875 8.84375 2.5 11.2083 2.5 14H8.75C10.125 14 11.3021 14.4896 12.2812 15.4688C13.2604 16.4479 13.75 17.625 13.75 19V20.25H10V23.6875C10.4167 23.7917 10.8281 23.8698 11.2344 23.9219C11.6406 23.974 12.0625 24 12.5 24Z" fill="#00450D"/>
<path d="M49.14 6.86C49.13 5.3491 48.6342 4.1916 47.6525 3.3875C46.6697 2.5825 45.2589 2.18 43.42 2.18C41.6701 2.18 40.3126 2.57167 39.3475 3.355C38.3825 4.13826 37.9 5.23993 37.9 6.66C37.9 7.79131 38.2133 8.65714 38.84 9.2575C39.4684 9.85949 40.5217 10.3003 42 10.58L44.04 10.98C45.0428 11.1705 45.7495 11.4239 46.16 11.74C46.5733 12.0583 46.78 12.5116 46.78 13.1C46.78 13.7092 46.5175 14.1884 45.9925 14.5375C45.4687 14.8858 44.7512 15.06 43.84 15.06C42.8232 15.06 42.034 14.8517 41.4725 14.435C40.9143 14.0208 40.6102 13.4225 40.56 12.64H37.64C37.7299 14.199 38.2941 15.3923 39.3325 16.22C40.3696 17.0467 41.8188 17.46 43.68 17.46C45.5619 17.46 47.0286 17.0458 48.08 16.2175C49.1333 15.3877 49.66 14.2285 49.66 12.74C49.66 11.591 49.3542 10.6985 48.7425 10.0625C48.1321 9.42774 47.1512 8.98024 45.8 8.72L43.52 8.28C42.4481 8.06963 41.7206 7.83296 41.3375 7.57C40.9525 7.30574 40.76 6.90907 40.76 6.38C40.76 5.82828 40.985 5.39078 41.435 5.0675C41.8874 4.7425 42.5024 4.58 43.28 4.58C45.2173 4.58 46.2373 5.34 46.34 6.86H49.14ZM61.16 17V6.2H58.36V12.96C58.36 13.6017 58.1558 14.1151 57.7475 14.5C57.3373 14.8867 56.7882 15.08 56.1 15.08C54.9 15.08 54.3 14.4333 54.3 13.14V6.2H51.5V13.72C51.5 14.9196 51.8133 15.843 52.44 16.49C53.0663 17.1367 53.9596 17.46 55.12 17.46C55.8515 17.46 56.474 17.3225 56.9875 17.0475C57.5033 16.7713 57.9608 16.3288 58.36 15.72V17H61.16ZM72.66 9.68C72.64 8.53884 72.2141 7.64384 71.3825 6.995C70.5494 6.345 69.4085 6.02 67.96 6.02C66.5902 6.02 65.5077 6.3425 64.7125 6.9875C63.9175 7.6323 63.52 8.5098 63.52 9.62C63.52 10.3512 63.72 10.9379 64.12 11.38C64.3118 11.5718 64.5226 11.7268 64.7525 11.845C64.9887 11.9665 65.3646 12.1115 65.88 12.28L69.22 13.32C69.571 13.4303 69.8152 13.5495 69.9525 13.6775C70.0908 13.8065 70.16 13.9806 70.16 14.2C70.16 14.5303 69.9758 14.7895 69.6075 14.9775C69.2386 15.1658 68.7294 15.26 68.08 15.26C67.3241 15.26 66.7708 15.1333 66.42 14.88C66.1615 14.6904 65.9815 14.3504 65.88 13.86H63.14C63.2207 16.26 64.9207 17.46 68.24 17.46C69.7333 17.46 70.88 17.14 71.68 16.5C72.0812 16.1791 72.3945 15.7816 72.62 15.3075C72.8467 14.831 72.96 14.3285 72.96 13.8C72.96 12.4047 72.2533 11.498 70.84 11.08L67.3 10.06C66.9071 9.9391 66.6462 9.8241 66.5175 9.715C66.3858 9.60342 66.32 9.43842 66.32 9.22C66.32 8.91941 66.4675 8.67774 66.7625 8.495C67.0585 8.31167 67.451 8.22 67.94 8.22C69.2668 8.22 69.9401 8.70667 69.96 9.68H72.66ZM79.68 6.42H78.12V3.52H75.32V6.42H73.94V8.28H75.32V14.92C75.32 16.6133 76.2333 17.46 78.06 17.46C78.6633 17.46 79.2033 17.3867 79.68 17.24V15.28C79.4 15.32 79.1867 15.34 79.04 15.34C78.6688 15.34 78.423 15.2633 78.3025 15.11C78.1808 14.9552 78.12 14.6385 78.12 14.16V8.28H79.68V6.42ZM90.9 16.66C90.6588 16.4288 90.4921 16.2188 90.4 16.03C90.3067 15.8387 90.26 15.6087 90.26 15.34V9.34C90.26 7.12667 88.7867 6.02 85.84 6.02C82.9395 6.02 81.3995 7.26667 81.22 9.76H83.92C83.9903 9.19759 84.1653 8.81092 84.445 8.6C84.7279 8.38667 85.2129 8.28 85.9 8.28C86.98 8.28 87.52 8.64 87.52 9.36C87.52 9.728 87.36 10.008 87.04 10.2C86.85 10.3 86.6817 10.3675 86.535 10.4025C86.3883 10.4375 85.97 10.51 85.28 10.62L84.16 10.82C82.04 11.1766 80.98 12.31 80.98 14.22C80.98 15.1919 81.2792 15.9744 81.8775 16.5675C82.4777 17.1625 83.2719 17.46 84.26 17.46C85.4595 17.46 86.5528 16.9467 87.54 15.92C87.54 16.1996 87.5608 16.4096 87.6025 16.55C87.644 16.6898 87.7298 16.8398 87.86 17H90.9V16.66ZM87.52 12.66C87.52 13.4706 87.3275 14.0964 86.9425 14.5375C86.557 14.9792 86.0095 15.2 85.3 15.2C84.8306 15.2 84.4597 15.0833 84.1875 14.85C83.9158 14.6171 83.78 14.3005 83.78 13.9C83.78 13.4809 83.9017 13.1592 84.145 12.935C84.3871 12.7119 84.7987 12.5403 85.38 12.42L86.34 12.24C86.8762 12.1386 87.2696 12.0252 87.52 11.9V12.66ZM95.68 6.2H92.88V17H95.68V6.2ZM95.68 2.42H92.88V4.92H95.68V2.42ZM98.36 6.2V17H101.16V10.52C101.16 9.87826 101.364 9.36493 101.772 8.98C102.183 8.59333 102.732 8.4 103.42 8.4C104.62 8.4 105.22 9.04667 105.22 10.34V17H108.02V9.76C108.02 8.56038 107.707 7.63705 107.08 6.99C106.454 6.34333 105.56 6.02 104.4 6.02C103.668 6.02 103.046 6.1575 102.532 6.4325C102.017 6.70874 101.559 7.15124 101.16 7.76V6.2H98.36ZM123.54 9.16H117.7V11.66H121.02C120.947 12.4053 120.707 13.0187 120.3 13.5C119.941 13.9388 119.497 14.2821 118.967 14.53C118.441 14.7767 117.892 14.9 117.32 14.9C116.1 14.9 115.102 14.4217 114.325 13.465C113.548 12.5087 113.16 11.2804 113.16 9.78C113.16 8.20729 113.52 6.97479 114.24 6.0825C114.962 5.1875 115.962 4.74 117.24 4.74C118.292 4.74 119.152 5.03333 119.82 5.62C120.198 5.94383 120.498 6.4305 120.72 7.08H123.54C123.36 5.57156 122.702 4.37739 121.565 3.4975C120.43 2.61917 118.982 2.18 117.22 2.18C115.121 2.18 113.419 2.88583 112.115 4.2975C110.812 5.70857 110.16 7.5494 110.16 9.82C110.16 12.0293 110.804 13.8551 112.092 15.2975C113.38 16.7392 115.009 17.46 116.98 17.46C117.96 17.46 118.799 17.275 119.495 16.905C120.192 16.5346 120.82 15.9396 121.38 15.12L121.74 17.04H123.54V9.16ZM129.02 2.42H126.22V17H129.02V2.42ZM136.46 6.02C134.811 6.02 133.512 6.53083 132.563 7.5525C131.614 8.57319 131.14 9.96902 131.14 11.74C131.14 13.5195 131.615 14.9179 132.565 15.935C133.515 16.9517 134.82 17.46 136.48 17.46C138.129 17.46 139.432 16.955 140.388 15.945C141.343 14.9357 141.82 13.5607 141.82 11.82C141.82 9.99031 141.349 8.56614 140.408 7.5475C139.466 6.52917 138.15 6.02 136.46 6.02ZM136.48 8.28C137.25 8.28 137.866 8.59833 138.328 9.235C138.789 9.87142 139.02 10.7198 139.02 11.78C139.02 12.79 138.784 13.6125 138.313 14.2475C137.841 14.8825 137.23 15.2 136.48 15.2C135.719 15.2 135.106 14.8833 134.64 14.25C134.173 13.6155 133.94 12.7789 133.94 11.74C133.94 10.7011 134.173 9.86446 134.64 9.23C135.106 8.59667 135.719 8.28 136.48 8.28ZM143.84 2.42V17H146.64V15.9C147.307 16.94 148.301 17.46 149.62 17.46C150.911 17.46 151.99 16.9142 152.858 15.8225C153.726 14.7297 154.16 13.3689 154.16 11.74C154.16 10.2037 153.773 8.87704 153 7.76C152.63 7.22991 152.139 6.80741 151.528 6.4925C150.916 6.1775 150.28 6.02 149.62 6.02C148.297 6.02 147.303 6.54667 146.64 7.6V2.42H143.84ZM149 8.36C149.691 8.36 150.257 8.67667 150.698 9.31C151.139 9.94473 151.36 10.7614 151.36 11.76C151.36 12.7516 151.142 13.5591 150.705 14.1825C150.267 14.8075 149.699 15.12 149 15.12C148.288 15.12 147.717 14.81 147.288 14.19C146.856 13.5674 146.64 12.7374 146.64 11.7C146.64 10.7098 146.858 9.90567 147.295 9.2875C147.732 8.66917 148.3 8.36 149 8.36ZM165.36 16.66C165.119 16.4288 164.952 16.2188 164.86 16.03C164.767 15.8387 164.72 15.6087 164.72 15.34V9.34C164.72 7.12667 163.247 6.02 160.3 6.02C157.4 6.02 155.86 7.26667 155.68 9.76H158.38C158.45 9.19759 158.625 8.81092 158.905 8.6C159.188 8.38667 159.673 8.28 160.36 8.28C161.44 8.28 161.98 8.64 161.98 9.36C161.98 9.728 161.82 10.008 161.5 10.2C161.31 10.3 161.142 10.3675 160.995 10.4025C160.848 10.4375 160.43 10.51 159.74 10.62L158.62 10.82C156.5 11.1766 155.44 12.31 155.44 14.22C155.44 15.1919 155.739 15.9744 156.337 16.5675C156.938 17.1625 157.732 17.46 158.72 17.46C159.919 17.46 161.013 16.9467 162 15.92C162 16.1996 162.021 16.4096 162.062 16.55C162.104 16.6898 162.19 16.8398 162.32 17H165.36V16.66ZM161.98 12.66C161.98 13.4706 161.787 14.0964 161.402 14.5375C161.017 14.9792 160.469 15.2 159.76 15.2C159.291 15.2 158.92 15.0833 158.647 14.85C158.376 14.6171 158.24 14.3005 158.24 13.9C158.24 13.4809 158.362 13.1592 158.605 12.935C158.847 12.7119 159.259 12.5403 159.84 12.42L160.8 12.24C161.336 12.1386 161.73 12.0252 161.98 11.9V12.66ZM170.14 2.42H167.34V17H170.14V2.42Z" fill="black"/>
</svg>
