<svg width="48" height="48" viewBox="0 0 48 48" fill="none" xmlns="http://www.w3.org/2000/svg">
<rect width="48" height="48" rx="8" fill="#00450D" fill-opacity="0.1"/>
<path d="M22.4617 27.5C22.8784 27.9167 23.4034 28.1125 24.0367 28.0875C24.6701 28.0625 25.1284 27.8333 25.4117 27.4L31.0117 19L22.6117 24.6C22.1784 24.9 21.9409 25.3542 21.8992 25.9625C21.8576 26.5708 22.0451 27.0833 22.4617 27.5ZM17.1117 32C16.7451 32 16.4076 31.9208 16.0992 31.7625C15.7909 31.6042 15.5451 31.3667 15.3617 31.05C14.9284 30.2667 14.5951 29.4542 14.3617 28.6125C14.1284 27.7708 14.0117 26.9 14.0117 26C14.0117 24.6167 14.2742 23.3167 14.7992 22.1C15.3242 20.8833 16.0367 19.825 16.9367 18.925C17.8367 18.025 18.8951 17.3125 20.1117 16.7875C21.3284 16.2625 22.6284 16 24.0117 16C25.3784 16 26.6617 16.2583 27.8617 16.775C29.0617 17.2917 30.1117 17.9958 31.0117 18.8875C31.9117 19.7792 32.6284 20.8208 33.1617 22.0125C33.6951 23.2042 33.9701 24.4833 33.9867 25.85C34.0034 26.7667 33.8992 27.6625 33.6742 28.5375C33.4492 29.4125 33.1034 30.25 32.6367 31.05C32.4534 31.3667 32.2076 31.6042 31.8992 31.7625C31.5909 31.9208 31.2534 32 30.8867 32H17.1117Z" fill="#00450D"/>
</svg>
